# xmcd
#
# Track frame offsets:
#	150
#	17617
#	32540
#	40187
#	54842
#	66357
#	77435
#	89117
#	98292
#	111657
#	126470
#	143325
#	160590
#
# Disc length: 2282 seconds
#
# Revision: 0
# Processed by: cddbd v1.5.2PL0 Copyright (c) Steve Scherf et al.
# Submitted via: EZCDAudioConverter 2.1.5.1
#
DISCID=9c08e80d
DTITLE=J.J.Nybergh and Milkcows - Coctailshuffle
DYEAR=1900
DGENRE=Blues
TTITLE0=Rolling Stone
TTITLE1=Trouble No More
TTITLE2=Born In Chicago
TTITLE3=No Mo Do Yakamo
TTITLE4=Down In The Bottom
TTITLE5=300 Pounds Of Joy
TTITLE6=Troubadour
TTITLE7=I'm A Hog For You
TTITLE8=Drop Down Mama
TTITLE9=God Moves On The Water
TTITLE10=Want Ad
TTITLE11=Walking The Dog
TTITLE12=Turn The Lights Out (Radio Single)
EXTD=
EXTT0=
EXTT1=
EXTT2=
EXTT3=
EXTT4=
EXTT5=
EXTT6=
EXTT7=
EXTT8=
EXTT9=
EXTT10=
EXTT11=
EXTT12=
PLAYORDER=
